<svg width="35" height="35" viewBox="0 0 35 35" fill="none" xmlns="http://www.w3.org/2000/svg">
<g clip-path="url(#clip0_26_2)">
<rect width="5" height="5" fill="#00DDDD"/>
<rect y="15" width="5" height="5" fill="#E15E00"/>
<rect y="30" width="5" height="5" fill="#00DDDD"/>
<rect x="5" y="10" width="5" height="5" fill="#E15E00"/>
<rect x="5" y="20" width="5" height="5" fill="#E15E00"/>
<rect x="10" y="5" width="5" height="5" fill="#E15E00"/>
<rect x="10" y="25" width="5" height="5" fill="#E15E00"/>
<rect x="15" width="5" height="5" fill="#E15E00"/>
<rect x="16" y="12" width="3" height="6" fill="#00DDDD"/>
<rect x="23" y="16" width="3" height="6" transform="rotate(90 23 16)" fill="#00DDDD"/>
<rect x="18" y="16" width="3" height="6" transform="rotate(90 18 16)" fill="#00DDDD"/>
<rect x="16" y="18" width="3" height="6" fill="#00DDDD"/>
<rect x="15" y="30" width="5" height="5" fill="#E15E00"/>
<rect x="20" y="5" width="5" height="5" fill="#E15E00"/>
<rect x="20" y="25" width="5" height="5" fill="#E15E00"/>
<rect x="25" y="10" width="5" height="5" fill="#E15E00"/>
<rect x="25" y="20" width="5" height="5" fill="#E15E00"/>
<rect x="30" width="5" height="5" fill="#00DDDD"/>
<rect x="30" y="15" width="5" height="5" fill="#E15E00"/>
<rect x="30" y="30" width="5" height="5" fill="#00DDDD"/>
</g>
<defs>
<clipPath id="clip0_26_2">
<rect width="35" height="35" fill="white"/>
</clipPath>
</defs>
</svg>
